<?xml version="1.0" encoding="UTF-8"?>
<svg width="260px" height="260px" viewBox="0 0 260 260" version="1.1" xmlns="http://www.w3.org/2000/svg" xmlns:xlink="http://www.w3.org/1999/xlink">
    <!-- Generator: Sketch 3.8.1 (29687) - http://www.bohemiancoding.com/sketch -->
    <title>StructLogo_BW_Light_Medium</title>
    <desc>Created with Sketch.</desc>
    <defs></defs>
    <g id="Page-1" stroke="none" stroke-width="1" fill="none" fill-rule="evenodd">
        <g id="LogoBWLight_Medium" transform="translate(30.000000, 18.000000)">
            <g id="Group-Copy" transform="translate(42.384106, 43.476190)" fill="#FFFFFF">
                <ellipse id="Oval-1" cx="56.9536424" cy="13.2738095" rx="13.2450331" ry="13.2738095"></ellipse>
                <ellipse id="Oval-1-Copy-3" cx="13.2450331" cy="92.9166667" rx="13.2450331" ry="13.2738095"></ellipse>
                <ellipse id="Oval-1-Copy-4" cx="56.9536424" cy="120.791667" rx="13.2450331" ry="13.2738095"></ellipse>
                <path d="M104.635762,107.517857 C111.950791,107.517857 117.880795,101.57497 117.880795,94.2440476 C117.880795,86.913125 111.950791,80.9702381 104.635762,80.9702381 C97.3207318,80.9702381 91.3907285,86.913125 91.3907285,94.2440476 C91.3907285,101.57497 97.3207318,107.517857 104.635762,107.517857 Z" id="Oval-1-Copy-5"></path>
                <ellipse id="Oval-1-Copy" cx="104.635762" cy="41.1488095" rx="13.2450331" ry="13.2738095"></ellipse>
                <path d="M13.2450331,55.75 C20.5600629,55.75 26.4900662,49.807113 26.4900662,42.4761905 C26.4900662,35.1452679 20.5600629,29.202381 13.2450331,29.202381 C5.93000331,29.202381 0,35.1452679 0,42.4761905 C0,49.807113 5.93000331,55.75 13.2450331,55.75 Z" id="Oval-1-Copy-2"></path>
            </g>
            <g id="Group-Copy-2" transform="translate(75.496689, 81.970238)" fill="#FFFFFF">
                <ellipse id="Oval-1" cx="24.5936183" cy="5.78264969" rx="5.71944612" ry="5.78264969"></ellipse>
                <ellipse id="Oval-1-Copy-3" cx="5.71944612" cy="40.4785479" rx="5.71944612" ry="5.78264969"></ellipse>
                <ellipse id="Oval-1-Copy-4" cx="24.5936183" cy="52.6221122" rx="5.71944612" ry="5.78264969"></ellipse>
                <ellipse id="Oval-1-Copy-5" cx="45.936183" cy="41.0568128" rx="5.71944612" ry="5.78264969"></ellipse>
                <ellipse id="Oval-1-Copy" cx="45.936183" cy="17.926214" rx="5.71944612" ry="5.78264969"></ellipse>
                <path d="M5.71944612,24.2871287 C8.87820898,24.2871287 11.4388922,21.6981483 11.4388922,18.504479 C11.4388922,15.3108098 8.87820898,12.7218293 5.71944612,12.7218293 C2.56068325,12.7218293 0,15.3108098 0,18.504479 C0,21.6981483 2.56068325,24.2871287 5.71944612,24.2871287 Z" id="Oval-1-Copy-2"></path>
            </g>
            <ellipse id="Oval-1-Copy-6" fill="#FFFFFF" cx="101.41481" cy="111.645745" rx="5.71944612" ry="5.78264969"></ellipse>
            <path d="M87.8813501,4.46270357 C94.5742956,0.590134279 105.429074,0.59208415 112.11865,4.46270357 L187.219098,47.9161709 C193.912044,51.7887402 199.337748,61.1901703 199.337748,68.9375348 L199.337748,155.873183 C199.337748,163.610393 193.908674,173.023928 187.219098,176.894547 L112.11865,220.348015 C105.425704,224.220584 94.5709257,224.218634 87.8813501,220.348015 L12.7809016,176.894547 C6.08795604,173.021978 0.662251656,163.620548 0.662251656,155.873183 L0.662251656,68.9375348 C0.662251656,61.2003254 6.09132599,51.7867903 12.7809016,47.9161709 L87.8813501,4.46270357 Z" id="Polygon-1-Copy" stroke="#FFFFFF" stroke-width="14" stroke-linecap="square" stroke-linejoin="round"></path>
        </g>
    </g>
</svg>