<?xml version="1.0" encoding="UTF-8"?>
<svg width="52px" height="52px" viewBox="0 0 52 52" version="1.1" xmlns="http://www.w3.org/2000/svg" xmlns:xlink="http://www.w3.org/1999/xlink">
    <!-- Generator: Sketch 3.8.1 (29687) - http://www.bohemiancoding.com/sketch -->
    <title>StructLogo_BW_Small_Light</title>
    <desc>Created with Sketch.</desc>
    <defs></defs>
    <g id="Page-1" stroke="none" stroke-width="1" fill="none" fill-rule="evenodd">
        <g id="Artboard-1" transform="translate(-5654.000000, -4467.000000)">
            <g id="LogoColour_White_Headline" transform="translate(5467.000000, 4506.000000)"></g>
            <g id="LogoBWSmallLight" transform="translate(5661.000000, 4472.000000)">
                <g id="Group-Copy" transform="translate(7.841060, 8.271051)" fill="#FFFFFF">
                    <ellipse id="Oval-1" cx="10.5364238" cy="2.4478749" rx="2.45033113" ry="2.4478749"></ellipse>
                    <ellipse id="Oval-1-Copy-3" cx="2.45033113" cy="17.1351243" rx="2.45033113" ry="2.4478749"></ellipse>
                    <ellipse id="Oval-1-Copy-4" cx="10.5364238" cy="22.2756616" rx="2.45033113" ry="2.4478749"></ellipse>
                    <path d="M19.3576159,19.8277867 C20.7108964,19.8277867 21.807947,18.7318358 21.807947,17.3799118 C21.807947,16.0279878 20.7108964,14.9320369 19.3576159,14.9320369 C18.0043354,14.9320369 16.9072848,16.0279878 16.9072848,17.3799118 C16.9072848,18.7318358 18.0043354,19.8277867 19.3576159,19.8277867 Z" id="Oval-1-Copy-5"></path>
                    <ellipse id="Oval-1-Copy" cx="19.3576159" cy="7.58841219" rx="2.45033113" ry="2.4478749"></ellipse>
                    <path d="M2.45033113,10.2810746 C3.80361164,10.2810746 4.90066225,9.18512366 4.90066225,7.83319968 C4.90066225,6.4812757 3.80361164,5.38532478 2.45033113,5.38532478 C1.09705061,5.38532478 0,6.4812757 0,7.83319968 C0,9.18512366 1.09705061,10.2810746 2.45033113,10.2810746 Z" id="Oval-1-Copy-2"></path>
                </g>
                <g id="Group-Copy-2" transform="translate(13.966887, 15.369888)" fill="#FFFFFF">
                    <ellipse id="Oval-1" cx="4.54981939" cy="1.06640095" rx="1.05809753" ry="1.06640095"></ellipse>
                    <ellipse id="Oval-1-Copy-3" cx="1.05809753" cy="7.46480663" rx="1.05809753" ry="1.06640095"></ellipse>
                    <ellipse id="Oval-1-Copy-4" cx="4.54981939" cy="9.70424861" rx="1.05809753" ry="1.06640095"></ellipse>
                    <ellipse id="Oval-1-Copy-5" cx="8.49819386" cy="7.57144672" rx="1.05809753" ry="1.06640095"></ellipse>
                    <ellipse id="Oval-1-Copy" cx="8.49819386" cy="3.30584293" rx="1.05809753" ry="1.06640095"></ellipse>
                    <path d="M1.05809753,4.47888398 C1.64246866,4.47888398 2.11619506,4.00144001 2.11619506,3.41248303 C2.11619506,2.82352605 1.64246866,2.34608208 1.05809753,2.34608208 C0.473726401,2.34608208 0,2.82352605 0,3.41248303 C0,4.00144001 0.473726401,4.47888398 1.05809753,4.47888398 Z" id="Oval-1-Copy-2"></path>
                </g>
                <ellipse id="Oval-1-Copy-6" fill="#FFFFFF" cx="18.7617399" cy="20.8424635" rx="1.05809753" ry="1.06640095"></ellipse>
                <path d="M16.771091,0.780513926 C17.7259411,0.22978358 19.2779194,0.232010183 20.228909,0.780513926 L35.1485744,9.38575216 C36.1034245,9.93648251 36.8774834,11.2803012 36.8774834,12.3773087 L36.8774834,29.5877851 C36.8774834,30.6892458 36.099564,32.0308379 35.1485744,32.5793417 L20.228909,41.1845799 C19.2740589,41.7353102 17.7220806,41.7330836 16.771091,41.1845799 L1.85142558,32.5793417 C0.896575493,32.0286113 0.122516556,30.6847926 0.122516556,29.5877851 L0.122516556,12.3773087 C0.122516556,11.275848 0.900435954,9.9342559 1.85142558,9.38575216 L16.771091,0.780513926 Z" id="Polygon-1-Copy" stroke="#FFFFFF" stroke-width="3" stroke-linecap="square" stroke-linejoin="round"></path>
            </g>
        </g>
    </g>
</svg>